<?xml version="1.0" encoding="UTF-8"?>
<svg width="332px" height="127px" viewBox="0 0 332 127" version="1.1" xmlns="http://www.w3.org/2000/svg" xmlns:xlink="http://www.w3.org/1999/xlink">
    <title>T1x</title>
    <g id="页面-1" stroke="none" stroke-width="1" fill="none" fill-rule="evenodd">
        <g id="co-pc" transform="translate(-1125.000000, -921.000000)" fill="#242933" fill-rule="nonzero">
            <g id="编组-12" transform="translate(0.000000, 80.000000)">
                <path d="M1201.9,968 L1201.9,864.32 L1255,864.32 L1255,843.8 L1125.94,843.8 L1125.94,864.32 L1178.86,864.32 L1178.86,968 L1201.9,968 Z M1326.1,968 L1326.1,850.64 C1326.1,844.7 1323.4,841.64 1318,841.64 C1315.3,841.64 1311.52,842.18 1306.66,843.44 L1267.24,852.98 L1267.24,872.78 L1303.06,865.22 L1303.06,968 L1326.1,968 Z M1374.7,968 L1398.82,936.5 C1400.26,934.88 1401.7,933.98 1403.14,933.98 C1404.58,933.98 1405.84,934.88 1407.1,936.5 L1431.04,968 L1456.42,968 L1419.7,921.74 L1455.7,878 L1430.68,878 L1407.1,908.06 C1405.84,909.68 1404.58,910.4 1403.14,910.4 C1401.52,910.4 1400.08,909.68 1398.82,908.06 L1375.06,878 L1350.04,878 L1386.22,921.92 L1349.68,968 L1374.7,968 Z" id="T1x"></path>
            </g>
        </g>
    </g>
</svg>